<svg width="48" height="48" viewBox="0 0 48 48" fill="none" xmlns="http://www.w3.org/2000/svg">
<path fill-rule="evenodd" clip-rule="evenodd" d="M13.4234 7.94168C20.4604 7.31249 27.5396 7.31249 34.5767 7.94168L37.6113 8.21302C40.6361 8.48347 43.08 10.7942 43.5193 13.7991C44.5083 20.5637 44.5083 27.4363 43.5193 34.2009C43.08 37.2058 40.6361 39.5165 37.6113 39.787L34.5767 40.0583C27.5396 40.6875 20.4604 40.6875 13.4234 40.0583L10.3887 39.787C7.36397 39.5165 4.92006 37.2058 4.48075 34.2009C3.49177 27.4363 3.49177 20.5637 4.48075 13.7991C4.92006 10.7942 7.36397 8.48347 10.3887 8.21302L13.4234 7.94168ZM11.7111 13.6793C11.2463 13.429 10.6841 13.4415 10.2308 13.7122C9.77756 13.983 9.5 14.472 9.5 15V34C9.5 34.8284 10.1716 35.5 11 35.5C11.8284 35.5 12.5 34.8284 12.5 34V17.5113L23.2888 23.3207C23.7328 23.5598 24.2672 23.5598 24.7112 23.3207L35.5 17.5113V34C35.5 34.8284 36.1716 35.5 37 35.5C37.8284 35.5 38.5 34.8284 38.5 34V15C38.5 14.472 38.2224 13.983 37.7692 13.7122C37.3159 13.4415 36.7537 13.429 36.2888 13.6793L24 20.2964L11.7111 13.6793Z" fill="#203239"/>
</svg>
