<svg width="48" height="48" viewBox="0 0 48 48" fill="none" xmlns="http://www.w3.org/2000/svg">
<path d="M10.0004 19.721C13.8332 28.0688 20.6532 34.7058 29.1323 38.3038L30.4915 38.9094C33.6011 40.2949 37.2566 39.2423 39.1533 36.4153L40.9295 33.7679C41.5069 32.9071 41.3311 31.7478 40.5244 31.097L34.5007 26.2374C33.6159 25.5236 32.3149 25.6899 31.6381 26.6032L29.7746 29.1177C24.993 26.759 21.1109 22.8769 18.7522 18.0953L21.2667 16.2319C22.18 15.555 22.3463 14.254 21.6325 13.3692L16.7728 7.34533C16.1221 6.53877 14.9631 6.36284 14.1023 6.93998L11.4366 8.72737C8.59195 10.6348 7.54519 14.3205 8.96266 17.4384L9.99883 19.7176L10.0004 19.721Z" fill="#203239"/>
</svg>
